<?xml version="1.0" encoding="utf-8"?>
<!-- Generator: Adobe Illustrator 19.2.1, SVG Export Plug-In . SVG Version: 6.00 Build 0)  -->
<svg version="1.1" id="Layer_1" xmlns="http://www.w3.org/2000/svg" xmlns:xlink="http://www.w3.org/1999/xlink" x="0px" y="0px"
	 viewBox="0 0 64 64" style="enable-background:new 0 0 64 64;" xml:space="preserve">
<style type="text/css">
	.st0{fill:#c5c5c5;}
</style>
<g>
	<g id="Icon-Trophy" transform="translate(28.000000, 530.000000)">
		<path id="Fill-1_2_" class="st0" d="M9-491.8c4.2-3.2,10.5-8.1,10.5-25.9v-1.4h-31.1v1.4c0,17.9,6.3,22.7,10.5,25.9
			c2.4,1.9,3.6,2.9,3.6,5.1v4.3c-2.3,0.2-4.5,1.1-5.3,2.8H-6c-1.6,0-2.8,1.3-2.8,2.8h25.4c0-1.6-1.3-2.8-2.8-2.8h-3.2
			c-0.8-1.7-3-2.5-5.3-2.8v-4.3C5.4-489,6.6-490,9-491.8L9-491.8z M4-491c-0.9-1.2-2.1-2.1-3.3-3c-3.8-3-9.1-7-9.4-22.3h25.4
			C16.4-501,11.2-497,7.3-494C6.1-493.1,4.9-492.2,4-491L4-491z"/>
		<path id="Fill-2_1_" class="st0" d="M-4.7-495.2c-0.2,0-15.3-3.2-15.3-19.7v-1.4h9.9v2.8h-7c0.8,13,12.8,15.5,12.9,15.6
			L-4.7-495.2"/>
		<path id="Fill-3_2_" class="st0" d="M12.7-495.2l-0.6-2.8c0.5-0.1,12.1-2.6,12.9-15.6h-7v-2.8h10v1.4
			C28-498.4,12.9-495.2,12.7-495.2"/>
	</g>
</g>
</svg>
