<?xml version="1.0" encoding="utf-8"?>
<!-- Generator: Adobe Illustrator 19.2.1, SVG Export Plug-In . SVG Version: 6.00 Build 0)  -->
<svg version="1.1" id="Layer_1" xmlns="http://www.w3.org/2000/svg" xmlns:xlink="http://www.w3.org/1999/xlink" x="0px" y="0px"
	 viewBox="0 0 64 64" style="enable-background:new 0 0 64 64;" xml:space="preserve">
<style type="text/css">
	.st0{fill:#c5c5c5;}
</style>
<g>
	<g id="Icon-Image" transform="translate(278.000000, 232.000000)">
		<path id="Fill-12" class="st0" d="M-226.2-181.6h-39.5c-2.3,0-4.2-1.9-4.2-4.2V-214c0-2.3,1.9-4.2,4.2-4.2h39.5
			c2.3,0,4.2,1.9,4.2,4.2v28.2C-222-183.5-223.9-181.6-226.2-181.6L-226.2-181.6z M-265.8-215.5c-0.8,0-1.4,0.6-1.4,1.4v28.2
			c0,0.8,0.6,1.4,1.4,1.4h39.5c0.8,0,1.4-0.6,1.4-1.4v-28.2c0-0.8-0.6-1.4-1.4-1.4H-265.8L-265.8-215.5z"/>
		<path id="Fill-13" class="st0" d="M-238.9-201.5c-3.1,0-5.5-2.5-5.5-5.5s2.5-5.5,5.5-5.5s5.5,2.5,5.5,5.5
			S-235.9-201.5-238.9-201.5L-238.9-201.5z M-238.9-210c-1.6,0-2.9,1.3-2.9,2.9c0,1.6,1.3,2.9,2.9,2.9c1.6,0,2.9-1.3,2.9-2.9
			S-237.3-210-238.9-210L-238.9-210z"/>
		<polyline id="Fill-14" class="st0" points="-231.4,-182.1 -254.5,-203.8 -267.7,-191.6 -269.5,-193.5 -254.5,-207.4 -229.6,-184
			-231.4,-182.1 		"/>
		<polyline id="Fill-15" class="st0" points="-224.2,-189.3 -231.9,-195.5 -238.3,-190.2 -240,-192.3 -231.9,-198.9 -222.6,-191.3
			-224.2,-189.3 		"/>
	</g>
</g>
</svg>
