<?xml version="1.0" encoding="utf-8"?>
<!-- Generator: Adobe Illustrator 19.0.0, SVG Export Plug-In . SVG Version: 6.00 Build 0)  -->
<svg version="1.1" id="Warstwa_1" xmlns="http://www.w3.org/2000/svg" xmlns:xlink="http://www.w3.org/1999/xlink" x="0px" y="0px"
	 viewBox="-155 241.5 2524 368.9" style="enable-background:new -155 241.5 2524 368.9;" xml:space="preserve">
<style type="text/css">
	.st0{fill:#FFFFFF;}
</style>
<g id="Warstwa_1_1_">
</g>
<g id="Warstwa_2">
</g>
<g id="Warstwa_3">
	<g id="XMLID_20_">
		<g id="XMLID_2_">
			<path id="XMLID_3_" class="st0" d="M-15.1,251.1c16.9,0,31.9,2.4,45.1,7.1c13.1,4.8,24.3,11.2,33.4,19.4
				c9.1,8.1,16,17.6,20.7,28.3c4.7,10.7,7,22,7,33.9c0,10.8-1.1,20.3-3.3,28.5c-2.2,8.2-5.4,15.3-9.7,21.4c-4.3,6-9.6,11.2-16,15.4
				c-6.3,4.2-13.6,7.8-21.7,10.6c37.9,13.2,56.8,38.9,56.8,77.3c0,18.2-3.3,34-9.9,47.5c-6.6,13.4-15.4,24.6-26.4,33.6
				c-11,8.9-23.8,15.6-38.4,20.1c-14.6,4.5-29.7,6.7-45.6,6.7c-16.3,0-30.8-1.8-43.5-5.3c-12.7-3.5-23.9-9-33.8-16.4
				c-9.9-7.4-18.5-16.9-26-28.5s-13.9-25.4-19.4-41.3l32.4-13.2c2.8-1.3,5.6-2.1,8.3-2.6c2.7-0.5,5.4-0.7,8.1-0.7
				c5,0,9.5,1,13.5,2.9c4,2,7,4.8,9,8.6c7,13,14.5,22.4,22.4,28.3c7.9,5.9,17.2,8.8,27.8,8.8c8.1,0,15.2-1.4,21.3-4.1
				c6-2.7,11-6.3,15-10.6c4-4.3,7-9.2,9-14.7c2-5.5,3.1-11,3.1-16.7c0-7.4-0.5-14-1.5-19.8c-1-5.9-3.9-10.9-8.6-15.2
				c-4.7-4.2-11.8-7.5-21.2-9.7c-9.5-2.3-22.7-3.4-39.6-3.4V397c14.2,0,25.8-1.1,34.5-3.3c8.8-2.2,15.5-5.2,20.3-9.1
				c4.8-3.8,7.9-8.5,9.5-14c1.6-5.5,2.4-11.5,2.4-18.1c0-13.5-3.3-23.8-9.8-31.1c-6.5-7.3-16.4-10.9-29.7-10.9
				c-5.5,0-10.5,0.8-15,2.3c-4.5,1.6-8.6,3.7-12.2,6.3s-6.7,5.8-9.3,9.4c-2.6,3.6-4.7,7.5-6.2,11.7c-2.5,7-5.7,12.1-9.5,15.3
				c-3.8,3.1-9,4.7-15.6,4.7c-1.6,0-3.2-0.1-5-0.2c-1.8-0.1-3.6-0.4-5.5-0.7l-38.5-6.8c2.5-17.1,7.3-31.9,14.4-44.6
				c7.1-12.7,16-23.2,26.5-31.7c10.6-8.5,22.7-14.8,36.3-18.9C-45.4,253.2-30.8,251.1-15.1,251.1z"/>
			<path id="XMLID_5_" class="st0" d="M349.7,459.2c2.9,6.4,5.7,13,8.3,19.7c2.7-6.9,5.5-13.6,8.5-20.1c3-6.5,6-12.8,9.2-18.9
				l87.8-173c1.6-3,3.2-5.3,4.8-6.9c1.6-1.6,3.5-2.9,5.5-3.6c2-0.8,4.3-1.2,6.9-1.2s5.6,0,9,0h60.6V597h-70V400.2
				c0-9.6,0.5-19.9,1.4-31l-90.7,175.9c-2.8,5.5-6.6,9.6-11.4,12.5c-4.8,2.8-10.2,4.2-16.3,4.2h-10.8c-6.1,0-11.6-1.4-16.3-4.2
				c-4.8-2.8-8.6-7-11.4-12.5L233.8,369c0.6,5.5,1.1,10.9,1.4,16.3s0.5,10.4,0.5,14.9V597h-70V255.1h60.6c3.5,0,6.5,0,9,0
				s4.9,0.4,6.9,1.2c2,0.8,3.9,2,5.5,3.6c1.6,1.6,3.2,4,4.8,6.9l88.1,173.7C343.8,446.5,346.8,452.8,349.7,459.2z"/>
			<path id="XMLID_10_" class="st0" d="M1273.3,254.9v62.9H1177V597h-79.4V317.8h-96.3v-62.9H1273.3z"/>
			<path id="XMLID_12_" class="st0" d="M1421.3,597h-79.9V254.9h79.9V597z"/>
			<path id="XMLID_14_" class="st0" d="M1850.6,425.8c0,24.7-4.3,47.8-12.8,69c-8.5,21.3-20.5,39.8-36,55.6
				c-15.5,15.7-34.2,28.1-56,37c-21.8,8.9-46.1,13.4-72.7,13.4c-26.6,0-50.9-4.5-72.8-13.4s-40.7-21.2-56.3-37
				c-15.6-15.7-27.6-34.3-36.2-55.6c-8.5-21.3-12.8-44.3-12.8-69c0-24.7,4.3-47.8,12.8-69c8.5-21.3,20.6-39.8,36.2-55.4
				c15.6-15.6,34.3-27.9,56.3-36.9c21.9-8.9,46.2-13.4,72.8-13.4c26.6,0,50.8,4.5,72.7,13.5c21.8,9,40.5,21.3,56,37
				c15.5,15.7,27.5,34.1,36,55.4C1846.3,378.3,1850.6,401.3,1850.6,425.8z M1769.3,425.8c0-16.9-2.2-32.1-6.6-45.7
				c-4.4-13.5-10.7-25-18.9-34.4c-8.2-9.4-18.3-16.6-30.2-21.6c-11.9-5-25.4-7.5-40.6-7.5c-15.4,0-29,2.5-41,7.5
				c-12,5-22.1,12.2-30.3,21.6c-8.2,9.4-14.5,20.9-18.9,34.4c-4.4,13.5-6.6,28.8-6.6,45.7c0,17.1,2.2,32.4,6.6,45.9
				c4.4,13.5,10.7,25,18.9,34.4c8.2,9.4,18.3,16.6,30.3,21.5c12,4.9,25.6,7.4,41,7.4c15.2,0,28.7-2.5,40.6-7.4
				c11.9-4.9,21.9-12.1,30.2-21.5c8.2-9.4,14.5-20.9,18.9-34.4C1767.1,458.2,1769.3,442.9,1769.3,425.8z"/>
			<path id="XMLID_17_" class="st0" d="M1967.3,255.3c2.3,0.3,4.5,0.9,6.3,1.8c1.9,0.8,3.7,2.1,5.4,3.6c1.7,1.5,3.7,3.7,5.9,6.3
				l162.5,205.5c-0.6-6.6-1.1-12.9-1.4-19.1c-0.3-6.2-0.5-12-0.5-17.5V254.9h70V597h-41.3c-6.1,0-11.3-0.9-15.5-2.8
				s-8.3-5.3-12.2-10.3L1985.1,380c0.5,6,0.9,11.8,1.2,17.5c0.3,5.7,0.5,11.1,0.5,16.1V597h-70V254.9h41.8
				C1962,254.9,1964.9,255,1967.3,255.3z"/>
		</g>
		<rect id="XMLID_19_" x="708.2" y="518.3" class="st0" width="248.3" height="82.5"/>
		<rect id="XMLID_1_" x="625.6" y="255.1" class="st0" width="177.8" height="82.5"/>
		<rect id="XMLID_7_" x="625.6" y="255.1" class="st0" width="82.5" height="177.8"/>
		<rect id="XMLID_9_" x="873.9" y="337.6" class="st0" width="82.5" height="263.2"/>
		<rect id="XMLID_21_" x="2289.7" y="254.9" class="st0" width="70" height="70"/>
	</g>
</g>
</svg>
