<?xml version="1.0" encoding="iso-8859-1"?>
<!-- Generator: Adobe Illustrator 19.0.0, SVG Export Plug-In . SVG Version: 6.00 Build 0)  -->
<svg version="1.1" xmlns="http://www.w3.org/2000/svg" xmlns:xlink="http://www.w3.org/1999/xlink" x="0px" y="0px"
	 viewBox="0 0 2524 368.85" style="enable-background:new 0 0 2524 368.85;" xml:space="preserve">
<g id="Warstwa_1">
</g>
<g id="Warstwa_2">
</g>
<g id="Warstwa_3">
	<g id="XMLID_20_">
		<g id="XMLID_2_">
			<path id="XMLID_3_" style="fill:#111111;" d="M139.905,9.577c16.911,0,31.94,2.39,45.097,7.146
				c13.145,4.78,24.263,11.25,33.352,19.386c9.077,8.136,15.97,17.575,20.665,28.294c4.696,10.719,7.037,22.042,7.037,33.944
				c0,10.791-1.098,20.303-3.283,28.536c-2.197,8.208-5.444,15.33-9.741,21.366c-4.309,6.035-9.633,11.154-15.97,15.378
				c-6.349,4.225-13.592,7.75-21.728,10.574c37.891,13.157,56.83,38.917,56.83,77.254c0,18.179-3.283,33.992-9.862,47.463
				c-6.579,13.447-15.378,24.649-26.423,33.581c-11.033,8.908-23.828,15.62-38.398,20.062c-14.558,4.466-29.743,6.711-45.556,6.711
				c-16.284,0-30.769-1.762-43.455-5.287c-12.675-3.525-23.949-9.005-33.811-16.441c-9.862-7.436-18.517-16.948-25.953-28.536
				s-13.894-25.373-19.374-41.331l32.411-13.157c2.813-1.255,5.589-2.124,8.329-2.583c2.74-0.483,5.444-0.7,8.112-0.7
				c5.009,0,9.512,0.966,13.495,2.921c3.995,1.98,7.013,4.828,9.041,8.57c7.049,13.013,14.521,22.428,22.428,28.319
				c7.906,5.866,17.189,8.788,27.836,8.788c8.136,0,15.221-1.352,21.257-4.104c6.023-2.728,11.033-6.253,15.028-10.574
				c3.995-4.297,7.001-9.174,9.041-14.678c2.028-5.456,3.054-11.033,3.054-16.658c0-7.363-0.507-13.978-1.533-19.845
				c-1.014-5.867-3.875-10.936-8.57-15.161c-4.696-4.225-11.781-7.46-21.245-9.729c-9.476-2.269-22.669-3.404-39.581-3.404v-50.264
				c14.244,0,25.759-1.111,34.523-3.283c8.764-2.197,15.535-5.215,20.315-9.053c4.78-3.839,7.943-8.498,9.512-13.978
				c1.569-5.48,2.354-11.492,2.354-18.082c0-13.471-3.259-23.828-9.753-31.119c-6.494-7.267-16.404-10.912-29.707-10.912
				c-5.48,0-10.49,0.773-15.028,2.342c-4.539,1.569-8.619,3.694-12.216,6.349s-6.687,5.794-9.271,9.391
				c-2.583,3.597-4.659,7.508-6.229,11.733c-2.511,7.049-5.673,12.143-9.512,15.282c-3.839,3.114-9.041,4.684-15.62,4.684
				c-1.569,0-3.247-0.072-5.046-0.241c-1.799-0.145-3.645-0.386-5.516-0.7l-38.518-6.808c2.499-17.068,7.315-31.94,14.449-44.614
				c7.122-12.675,15.97-23.249,26.532-31.698c10.574-8.474,22.669-14.775,36.285-18.927C109.607,11.653,124.249,9.577,139.905,9.577
				z"/>
			<path id="XMLID_5_" style="fill:#111111;" d="M504.738,217.632c2.897,6.422,5.673,13.013,8.341,19.748
				c2.668-6.905,5.48-13.592,8.462-20.11c2.969-6.494,6.023-12.795,9.15-18.927l87.84-173.025c1.557-2.969,3.175-5.287,4.816-6.929
				s3.476-2.873,5.516-3.645c2.028-0.797,4.346-1.183,6.929-1.183s5.601,0,9.041,0h60.596v341.946h-69.987V158.702
				c0-9.56,0.471-19.893,1.4-30.998l-90.653,175.898c-2.813,5.48-6.615,9.633-11.383,12.457c-4.78,2.8-10.212,4.225-16.32,4.225
				h-10.804c-6.108,0-11.552-1.424-16.32-4.225c-4.78-2.825-8.582-6.977-11.395-12.457l-91.124-176.14
				c0.628,5.48,1.098,10.912,1.412,16.32c0.314,5.408,0.471,10.381,0.471,14.92v196.805H320.74V13.56h60.584
				c3.452,0,6.458,0,9.041,0s4.901,0.386,6.929,1.183c2.04,0.773,3.875,2.004,5.529,3.645c1.642,1.642,3.247,3.959,4.804,6.929
				l88.07,173.725C498.835,205.006,501.841,211.21,504.738,217.632z"/>
			<path id="XMLID_10_" style="fill:#111111;" d="M1428.299,13.319v62.938h-96.302v279.25h-79.379V76.257h-96.278V13.319H1428.299z"
				/>
			<path id="XMLID_12_" style="fill:#111111;" d="M1576.265,355.507h-79.861V13.319h79.861V355.507z"/>
			<path id="XMLID_14_" style="fill:#111111;" d="M2005.557,184.292c0,24.745-4.273,47.753-12.795,69.046
				c-8.546,21.293-20.545,39.81-36.044,55.551c-15.499,15.741-34.185,28.053-56.009,36.985
				c-21.849,8.932-46.087,13.399-72.691,13.399c-26.629,0-50.891-4.466-72.812-13.399c-21.921-8.933-40.655-21.245-56.251-36.985
				c-15.572-15.741-27.618-34.257-36.165-55.551c-8.522-21.293-12.795-44.3-12.795-69.046c0-24.721,4.273-47.753,12.795-69.046
				c8.546-21.293,20.593-39.762,36.165-55.43c15.596-15.644,34.33-27.932,56.251-36.865c21.921-8.933,46.184-13.375,72.812-13.375
				c26.604,0,50.843,4.49,72.691,13.495c21.824,9.005,40.51,21.341,56.009,36.985c15.499,15.668,27.498,34.137,36.044,55.43
				C2001.284,136.781,2005.557,159.716,2005.557,184.292z M1924.295,184.292c0-16.899-2.197-32.133-6.567-45.677
				c-4.394-13.544-10.695-25.011-18.903-34.402c-8.232-9.391-18.275-16.586-30.177-21.607c-11.902-4.997-25.446-7.508-40.631-7.508
				c-15.354,0-29.019,2.511-40.993,7.508c-11.974,5.022-22.066,12.216-30.298,21.607c-8.208,9.391-14.509,20.859-18.903,34.402
				c-4.37,13.544-6.567,28.777-6.567,45.677c0,17.068,2.197,32.374,6.567,45.918c4.394,13.544,10.695,25.011,18.903,34.402
				c8.232,9.391,18.324,16.561,30.298,21.486c11.974,4.949,25.639,7.412,40.993,7.412c15.185,0,28.729-2.462,40.631-7.412
				c11.902-4.925,21.945-12.095,30.177-21.486c8.208-9.391,14.509-20.859,18.903-34.402
				C1922.098,216.667,1924.295,201.361,1924.295,184.292z"/>
			<path id="XMLID_17_" style="fill:#111111;" d="M2122.283,13.802c2.342,0.314,4.466,0.893,6.349,1.762
				c1.859,0.845,3.67,2.076,5.384,3.645c1.738,1.545,3.694,3.67,5.866,6.325l162.523,205.496c-0.628-6.567-1.086-12.94-1.4-19.145
				c-0.314-6.18-0.483-11.999-0.483-17.479V13.319h69.988v342.188h-41.331c-6.108,0-11.274-0.942-15.499-2.825
				c-4.225-1.883-8.305-5.311-12.216-10.333l-161.341-203.854c0.483,5.963,0.869,11.781,1.183,17.503
				c0.314,5.722,0.459,11.081,0.459,16.079v183.43h-69.988V13.319h41.814C2117.044,13.319,2119.942,13.488,2122.283,13.802z"/>
		</g>
		<rect id="XMLID_19_" x="863.154" y="276.748" style="fill:#BC0F12;" width="248.314" height="82.525"/>
		<rect id="XMLID_1_" x="780.628" y="13.56" style="fill:#BC0F12;" width="177.781" height="82.525"/>
		<rect id="XMLID_7_" x="780.628" y="13.56" style="fill:#DD3C3C;" width="82.525" height="177.781"/>
		<rect id="XMLID_9_" x="1028.943" y="96.086" style="fill:#DD3C3C;" width="82.525" height="263.187"/>
		<rect id="XMLID_21_" x="2444.679" y="13.319" style="fill:#DD3C3C;" width="69.987" height="69.964"/>
	</g>
</g>
</svg>
